<mxfile host="app.diagrams.net" modified="2020-09-28T21:27:47.880Z" agent="5.0 (Windows NT 10.0; WOW64) AppleWebKit/537.36 (KHTML, like Gecko) Chrome/79.0.3945.130 Safari/537.36" etag="KXalKMLiKIf1tB9epHcR" version="13.7.6" type="github">
  <diagram id="0VFvLtj6nHnEVhGMtKS4" name="Page-1">
    <mxGraphModel dx="723" dy="375" grid="1" gridSize="10" guides="1" tooltips="1" connect="1" arrows="1" fold="1" page="1" pageScale="1" pageWidth="827" pageHeight="1169" math="0" shadow="0">
      <root>
        <mxCell id="0" />
        <mxCell id="1" parent="0" />
        <mxCell id="Df4NdywLuewB3CAYBun--17" value="" style="group" vertex="1" connectable="0" parent="1">
          <mxGeometry x="130" y="90" width="410" height="220" as="geometry" />
        </mxCell>
        <mxCell id="Df4NdywLuewB3CAYBun--3" value="" style="endArrow=classic;html=1;strokeWidth=2;" edge="1" parent="Df4NdywLuewB3CAYBun--17">
          <mxGeometry width="50" height="50" relative="1" as="geometry">
            <mxPoint x="50" y="200" as="sourcePoint" />
            <mxPoint x="50" as="targetPoint" />
          </mxGeometry>
        </mxCell>
        <mxCell id="Df4NdywLuewB3CAYBun--4" value="" style="endArrow=classic;html=1;strokeWidth=2;" edge="1" parent="Df4NdywLuewB3CAYBun--17">
          <mxGeometry width="50" height="50" relative="1" as="geometry">
            <mxPoint x="50" y="200" as="sourcePoint" />
            <mxPoint x="410" y="200" as="targetPoint" />
          </mxGeometry>
        </mxCell>
        <mxCell id="Df4NdywLuewB3CAYBun--5" value="" style="pointerEvents=1;verticalLabelPosition=bottom;shadow=0;dashed=0;align=center;html=1;verticalAlign=top;shape=mxgraph.electrical.waveforms.sine_wave;" vertex="1" parent="Df4NdywLuewB3CAYBun--17">
          <mxGeometry x="50" y="20" width="330" height="200" as="geometry" />
        </mxCell>
        <mxCell id="Df4NdywLuewB3CAYBun--6" value="&lt;b&gt;0x0FFF&lt;/b&gt;" style="text;html=1;strokeColor=none;fillColor=none;align=center;verticalAlign=middle;whiteSpace=wrap;rounded=0;" vertex="1" parent="Df4NdywLuewB3CAYBun--17">
          <mxGeometry y="30" width="40" height="20" as="geometry" />
        </mxCell>
        <mxCell id="Df4NdywLuewB3CAYBun--10" value="&lt;b&gt;0x0800&lt;/b&gt;" style="text;html=1;strokeColor=none;fillColor=none;align=center;verticalAlign=middle;whiteSpace=wrap;rounded=0;" vertex="1" parent="Df4NdywLuewB3CAYBun--17">
          <mxGeometry y="110" width="40" height="20" as="geometry" />
        </mxCell>
        <mxCell id="Df4NdywLuewB3CAYBun--11" value="&lt;b&gt;0x0000&lt;/b&gt;" style="text;html=1;strokeColor=none;fillColor=none;align=center;verticalAlign=middle;whiteSpace=wrap;rounded=0;" vertex="1" parent="Df4NdywLuewB3CAYBun--17">
          <mxGeometry y="190" width="40" height="20" as="geometry" />
        </mxCell>
        <mxCell id="Df4NdywLuewB3CAYBun--16" value="" style="endArrow=none;dashed=1;html=1;strokeWidth=2;" edge="1" parent="Df4NdywLuewB3CAYBun--17">
          <mxGeometry width="50" height="50" relative="1" as="geometry">
            <mxPoint x="50" y="120" as="sourcePoint" />
            <mxPoint x="410" y="120" as="targetPoint" />
          </mxGeometry>
        </mxCell>
      </root>
    </mxGraphModel>
  </diagram>
</mxfile>
